<?xml version="1.0" encoding="UTF-8"?>
<svg id="Layer_1" xmlns="http://www.w3.org/2000/svg" version="1.1" viewBox="0 0 24 24">
  <!-- Generator: Adobe Illustrator 29.6.1, SVG Export Plug-In . SVG Version: 2.1.1 Build 9)  -->
  <defs>
    <style>
      .st0 {
        fill: #ff90e8;
        stroke: #000;
        stroke-width: .46px;
      }
    </style>
  </defs>
  <path d="M13,23.91c6.08,0,11-4.93,11-11S19.07,1.9,13,1.9,1.99,6.83,1.99,12.91s4.93,11,11,11"/>
  <path class="st0" d="M11.47,22.8c6.21,0,11.24-5.03,11.24-11.24S17.68.32,11.47.32c-6.21,0-11.24,5.03-11.24,11.24s5.03,11.24,11.24,11.24h0Z"/>
  <path d="M10.52,17.1c-3.22,0-5.12-2.59-5.12-5.8s2.09-6.05,6.07-6.05,5.5,2.77,5.56,4.35h-2.97c-.06-.88-.82-2.21-2.65-2.21-1.96,0-3.22,1.7-3.22,3.78s1.26,3.78,3.22,3.78c1.77,0,2.53-1.39,2.84-2.77h-2.84v-1.13h5.97v5.8h-2.62v-3.66c-.19,1.32-1.01,3.91-4.23,3.91h0Z"/>
</svg>