<?xml version="1.0" encoding="UTF-8"?>
<svg id="Layer_1" xmlns="http://www.w3.org/2000/svg" version="1.1" viewBox="0 0 24 24">
  <!-- Generator: Adobe Illustrator 29.6.1, SVG Export Plug-In . SVG Version: 2.1.1 Build 9)  -->
  <defs>
    <style>
      .st0 {
        fill: #fff;
      }
    </style>
  </defs>
  <path class="st0" d="M18.6,13.16c-1.11,0-2.15-.47-3.09-1.23l.23-1.08v-.04c.22-1.15.86-3.08,2.86-3.08,1.5,0,2.72,1.22,2.72,2.72s-1.22,2.71-2.72,2.71h0ZM18.6,4.98c-2.55,0-4.54,1.66-5.34,4.39-1.23-1.84-2.16-4.06-2.7-5.92h-2.75v7.15c0,1.41-1.15,2.56-2.56,2.56-1.41,0-2.56-1.15-2.56-2.56V3.44H-.07v7.15c0,2.93,2.38,5.33,5.31,5.33s5.31-2.4,5.31-5.33v-1.2c.53,1.11,1.19,2.24,1.99,3.24l-1.68,7.92h2.81l1.22-5.74c1.07.68,2.3,1.12,3.71,1.12,3.02,0,5.47-2.47,5.47-5.48s-2.45-5.47-5.47-5.47h0Z"/>
</svg>